<svg xmlns="http://www.w3.org/2000/svg" xml:space="preserve" viewBox="0 0 800 800"><path fill="#f9df5c" d="M400 113.136v-10.948C400 84.411 385.588 70 367.812 70H32.188C14.412 70 0 84.41 0 102.188v580.413h800V145.324c0-17.777-14.412-32.188-32.188-32.188H400"/><path fill="#fff" d="M771.963 688.488H35.515v-528.97h736.448v528.97"/><path fill="#f3cc30" d="m388.59 225.657-11.875 32.926H32.188C14.412 258.583 0 272.993 0 290.77v409.813c0 17.777 14.412 32.188 32.188 32.188h735.624c17.776 0 32.188-14.41 32.188-32.188V236.579c0-17.778-14.412-32.188-32.188-32.188H418.869a32.188 32.188 0 0 0-30.278 21.266"/><path fill="#edbd31" d="m388.59 303.576-11.875 27.866H32.188C14.412 331.442 0 343.638 0 358.684V705.53c0 15.046 14.412 27.242 32.188 27.242h735.624c17.776 0 32.188-12.196 32.188-27.242V312.819c0-15.046-14.412-27.242-32.188-27.242H418.869c-13.565 0-25.676 7.198-30.278 17.999"/></svg>